<mxfile host="65bd71144e">
    <diagram id="VHcx_zPL_FvLihiUxyqd" name="Page-1">
        <mxGraphModel dx="887" dy="725" grid="1" gridSize="10" guides="1" tooltips="1" connect="1" arrows="1" fold="1" page="1" pageScale="1" pageWidth="850" pageHeight="1100" math="0" shadow="0">
            <root>
                <mxCell id="0"/>
                <mxCell id="1" parent="0"/>
                <mxCell id="3" value="" style="whiteSpace=wrap;html=1;" parent="1" vertex="1">
                    <mxGeometry x="40" y="40" width="760" height="400" as="geometry"/>
                </mxCell>
                <mxCell id="5" value="&lt;b&gt;&lt;font style=&quot;font-size: 15px;&quot;&gt;Home&lt;/font&gt;&lt;/b&gt; | Races | My Race Planner" style="text;html=1;align=center;verticalAlign=middle;resizable=0;points=[];autosize=1;strokeColor=none;fillColor=none;" parent="1" vertex="1">
                    <mxGeometry x="320" y="50" width="210" height="30" as="geometry"/>
                </mxCell>
                <mxCell id="6" value="Login" style="text;html=1;align=center;verticalAlign=middle;resizable=0;points=[];autosize=1;strokeColor=none;fillColor=none;" parent="1" vertex="1">
                    <mxGeometry x="740" y="50" width="50" height="30" as="geometry"/>
                </mxCell>
                <mxCell id="8" value="" style="rounded=1;whiteSpace=wrap;html=1;" parent="1" vertex="1">
                    <mxGeometry x="80" y="145" width="470" height="240" as="geometry"/>
                </mxCell>
                <mxCell id="9" value="Upcoming Races" style="text;html=1;align=center;verticalAlign=middle;resizable=0;points=[];autosize=1;strokeColor=none;fillColor=none;" parent="1" vertex="1">
                    <mxGeometry x="120" y="165" width="110" height="30" as="geometry"/>
                </mxCell>
                <mxCell id="10" value="" style="rounded=1;whiteSpace=wrap;html=1;" parent="1" vertex="1">
                    <mxGeometry x="320" y="175" width="190" height="80" as="geometry"/>
                </mxCell>
                <mxCell id="11" value="" style="rounded=1;whiteSpace=wrap;html=1;" parent="1" vertex="1">
                    <mxGeometry x="320" y="275" width="190" height="80" as="geometry"/>
                </mxCell>
                <mxCell id="12" value="" style="rounded=1;whiteSpace=wrap;html=1;" parent="1" vertex="1">
                    <mxGeometry x="100" y="275" width="190" height="80" as="geometry"/>
                </mxCell>
                <mxCell id="13" value="" style="rounded=1;whiteSpace=wrap;html=1;" parent="1" vertex="1">
                    <mxGeometry x="570" y="150" width="190" height="230" as="geometry"/>
                </mxCell>
                <mxCell id="14" value="Calendar" style="text;html=1;align=center;verticalAlign=middle;resizable=0;points=[];autosize=1;strokeColor=none;fillColor=none;" parent="1" vertex="1">
                    <mxGeometry x="630" y="165" width="70" height="30" as="geometry"/>
                </mxCell>
                <mxCell id="15" value="" style="whiteSpace=wrap;html=1;" parent="1" vertex="1">
                    <mxGeometry x="45" y="560" width="760" height="400" as="geometry"/>
                </mxCell>
                <mxCell id="16" value="Home | &lt;b&gt;&lt;font style=&quot;font-size: 15px;&quot;&gt;Races&lt;/font&gt;&lt;/b&gt; | My Race Planner" style="text;html=1;align=center;verticalAlign=middle;resizable=0;points=[];autosize=1;strokeColor=none;fillColor=none;" parent="1" vertex="1">
                    <mxGeometry x="325" y="570" width="210" height="30" as="geometry"/>
                </mxCell>
                <mxCell id="17" value="Login" style="text;html=1;align=center;verticalAlign=middle;resizable=0;points=[];autosize=1;strokeColor=none;fillColor=none;" parent="1" vertex="1">
                    <mxGeometry x="745" y="570" width="50" height="30" as="geometry"/>
                </mxCell>
                <mxCell id="18" value="" style="rounded=1;whiteSpace=wrap;html=1;" parent="1" vertex="1">
                    <mxGeometry x="170" y="665" width="530" height="240" as="geometry"/>
                </mxCell>
                <mxCell id="19" value="Upcoming Races" style="text;html=1;align=center;verticalAlign=middle;resizable=0;points=[];autosize=1;strokeColor=none;fillColor=none;" parent="1" vertex="1">
                    <mxGeometry x="190" y="680" width="110" height="30" as="geometry"/>
                </mxCell>
                <mxCell id="22" value="" style="rounded=1;whiteSpace=wrap;html=1;" parent="1" vertex="1">
                    <mxGeometry x="420" y="692.5" width="240" height="135" as="geometry"/>
                </mxCell>
                <mxCell id="lqnCzb3Uq-UMUsm1JRrR-22" value="Race Info:&lt;br&gt;&lt;ul&gt;&lt;li&gt;Date/Time&lt;/li&gt;&lt;li&gt;Location&lt;/li&gt;&lt;li&gt;Race info link&lt;/li&gt;&lt;/ul&gt;" style="text;html=1;align=center;verticalAlign=middle;resizable=0;points=[];autosize=1;strokeColor=none;fillColor=none;" parent="1" vertex="1">
                    <mxGeometry x="460" y="705" width="140" height="110" as="geometry"/>
                </mxCell>
            </root>
        </mxGraphModel>
    </diagram>
    <diagram id="SJv5MUi3lHj-LP0wF2f4" name="Page-2">
        <mxGraphModel dx="976" dy="797" grid="1" gridSize="10" guides="1" tooltips="1" connect="1" arrows="1" fold="1" page="1" pageScale="1" pageWidth="850" pageHeight="1100" math="0" shadow="0">
            <root>
                <mxCell id="0"/>
                <mxCell id="1" parent="0"/>
                <mxCell id="JgP1TLPubcXvjKaJk5i4-1" value="" style="whiteSpace=wrap;html=1;" parent="1" vertex="1">
                    <mxGeometry x="40" y="40" width="760" height="400" as="geometry"/>
                </mxCell>
                <mxCell id="JgP1TLPubcXvjKaJk5i4-2" value="&lt;b&gt;&lt;font style=&quot;font-size: 15px;&quot;&gt;Home&lt;/font&gt;&lt;/b&gt; | Races | &lt;b&gt;&lt;font style=&quot;font-size: 15px;&quot;&gt;My Race Planner&lt;/font&gt;&lt;/b&gt;" style="text;html=1;align=center;verticalAlign=middle;resizable=0;points=[];autosize=1;strokeColor=none;fillColor=none;" parent="1" vertex="1">
                    <mxGeometry x="305" y="50" width="240" height="30" as="geometry"/>
                </mxCell>
                <mxCell id="JgP1TLPubcXvjKaJk5i4-3" value="Login" style="text;html=1;align=center;verticalAlign=middle;resizable=0;points=[];autosize=1;strokeColor=none;fillColor=none;" parent="1" vertex="1">
                    <mxGeometry x="740" y="50" width="50" height="30" as="geometry"/>
                </mxCell>
                <mxCell id="JgP1TLPubcXvjKaJk5i4-4" value="" style="rounded=1;whiteSpace=wrap;html=1;" parent="1" vertex="1">
                    <mxGeometry x="80" y="145" width="190" height="255" as="geometry"/>
                </mxCell>
                <mxCell id="JgP1TLPubcXvjKaJk5i4-5" value="My Upcoming Races" style="text;html=1;align=center;verticalAlign=middle;resizable=0;points=[];autosize=1;strokeColor=none;fillColor=none;" parent="1" vertex="1">
                    <mxGeometry x="110" y="165" width="130" height="30" as="geometry"/>
                </mxCell>
                <mxCell id="JgP1TLPubcXvjKaJk5i4-8" value="" style="rounded=1;whiteSpace=wrap;html=1;" parent="1" vertex="1">
                    <mxGeometry x="100" y="229" width="150" height="110" as="geometry"/>
                </mxCell>
                <mxCell id="JgP1TLPubcXvjKaJk5i4-12" value="" style="rounded=1;whiteSpace=wrap;html=1;" parent="1" vertex="1">
                    <mxGeometry x="290" y="145" width="190" height="255" as="geometry"/>
                </mxCell>
                <mxCell id="JgP1TLPubcXvjKaJk5i4-13" value="" style="rounded=1;whiteSpace=wrap;html=1;" parent="1" vertex="1">
                    <mxGeometry x="500" y="145" width="250" height="255" as="geometry"/>
                </mxCell>
                <mxCell id="JgP1TLPubcXvjKaJk5i4-10" value="Calendar" style="text;html=1;align=center;verticalAlign=middle;resizable=0;points=[];autosize=1;strokeColor=none;fillColor=none;" parent="1" vertex="1">
                    <mxGeometry x="590" y="160" width="70" height="30" as="geometry"/>
                </mxCell>
                <mxCell id="JgP1TLPubcXvjKaJk5i4-14" value="" style="rounded=1;whiteSpace=wrap;html=1;" parent="1" vertex="1">
                    <mxGeometry x="310" y="220" width="150" height="120" as="geometry"/>
                </mxCell>
                <mxCell id="JgP1TLPubcXvjKaJk5i4-15" value="Today's Run" style="text;html=1;align=center;verticalAlign=middle;resizable=0;points=[];autosize=1;strokeColor=none;fillColor=none;" parent="1" vertex="1">
                    <mxGeometry x="345" y="165" width="90" height="30" as="geometry"/>
                </mxCell>
                <mxCell id="JgP1TLPubcXvjKaJk5i4-17" value="Race Info:&lt;br&gt;&lt;ul&gt;&lt;li&gt;Date/Time&lt;/li&gt;&lt;li&gt;Location&lt;/li&gt;&lt;li&gt;Race info link&lt;/li&gt;&lt;/ul&gt;" style="text;html=1;align=center;verticalAlign=middle;resizable=0;points=[];autosize=1;strokeColor=none;fillColor=none;" parent="1" vertex="1">
                    <mxGeometry x="92" y="235" width="140" height="110" as="geometry"/>
                </mxCell>
                <mxCell id="JgP1TLPubcXvjKaJk5i4-19" value="&lt;span style=&quot;&quot;&gt;Workout Info:&lt;/span&gt;&lt;br style=&quot;&quot;&gt;&lt;ul style=&quot;&quot;&gt;&lt;li&gt;Run Type&amp;nbsp;&lt;/li&gt;&lt;li&gt;Distance&lt;/li&gt;&lt;li&gt;Pace&lt;/li&gt;&lt;li&gt;Run details&lt;/li&gt;&lt;/ul&gt;" style="text;html=1;align=center;verticalAlign=middle;resizable=0;points=[];autosize=1;strokeColor=none;fillColor=none;" parent="1" vertex="1">
                    <mxGeometry x="315" y="224" width="120" height="130" as="geometry"/>
                </mxCell>
                <mxCell id="JgP1TLPubcXvjKaJk5i4-20" value="" style="whiteSpace=wrap;html=1;fontSize=15;" parent="1" vertex="1">
                    <mxGeometry x="545" y="225" width="40" height="40" as="geometry"/>
                </mxCell>
                <mxCell id="JgP1TLPubcXvjKaJk5i4-21" value="" style="whiteSpace=wrap;html=1;fontSize=15;" parent="1" vertex="1">
                    <mxGeometry x="585" y="225" width="40" height="40" as="geometry"/>
                </mxCell>
                <mxCell id="JgP1TLPubcXvjKaJk5i4-22" value="" style="whiteSpace=wrap;html=1;fontSize=15;" parent="1" vertex="1">
                    <mxGeometry x="625" y="225" width="40" height="40" as="geometry"/>
                </mxCell>
                <mxCell id="JgP1TLPubcXvjKaJk5i4-24" value="" style="whiteSpace=wrap;html=1;fontSize=15;" parent="1" vertex="1">
                    <mxGeometry x="665" y="225" width="40" height="40" as="geometry"/>
                </mxCell>
                <mxCell id="JgP1TLPubcXvjKaJk5i4-27" value="" style="whiteSpace=wrap;html=1;fontSize=15;" parent="1" vertex="1">
                    <mxGeometry x="545" y="265" width="40" height="40" as="geometry"/>
                </mxCell>
                <mxCell id="JgP1TLPubcXvjKaJk5i4-28" value="" style="whiteSpace=wrap;html=1;fontSize=15;" parent="1" vertex="1">
                    <mxGeometry x="585" y="265" width="40" height="40" as="geometry"/>
                </mxCell>
                <mxCell id="JgP1TLPubcXvjKaJk5i4-29" value="" style="whiteSpace=wrap;html=1;fontSize=15;" parent="1" vertex="1">
                    <mxGeometry x="625" y="265" width="40" height="40" as="geometry"/>
                </mxCell>
                <mxCell id="JgP1TLPubcXvjKaJk5i4-30" value="" style="whiteSpace=wrap;html=1;fontSize=15;" parent="1" vertex="1">
                    <mxGeometry x="665" y="265" width="40" height="40" as="geometry"/>
                </mxCell>
                <mxCell id="JgP1TLPubcXvjKaJk5i4-31" value="" style="whiteSpace=wrap;html=1;fontSize=15;" parent="1" vertex="1">
                    <mxGeometry x="542.5" y="210" width="165" height="15" as="geometry"/>
                </mxCell>
                <mxCell id="JgP1TLPubcXvjKaJk5i4-32" value="" style="whiteSpace=wrap;html=1;fontSize=15;" parent="1" vertex="1">
                    <mxGeometry x="545" y="305" width="40" height="40" as="geometry"/>
                </mxCell>
                <mxCell id="JgP1TLPubcXvjKaJk5i4-33" value="" style="whiteSpace=wrap;html=1;fontSize=15;" parent="1" vertex="1">
                    <mxGeometry x="585" y="305" width="40" height="40" as="geometry"/>
                </mxCell>
                <mxCell id="JgP1TLPubcXvjKaJk5i4-34" value="" style="whiteSpace=wrap;html=1;fontSize=15;" parent="1" vertex="1">
                    <mxGeometry x="665" y="305" width="40" height="40" as="geometry"/>
                </mxCell>
                <mxCell id="JgP1TLPubcXvjKaJk5i4-35" value="" style="whiteSpace=wrap;html=1;fontSize=15;" parent="1" vertex="1">
                    <mxGeometry x="625" y="305" width="40" height="40" as="geometry"/>
                </mxCell>
                <mxCell id="JgP1TLPubcXvjKaJk5i4-39" value="Add Race" style="rounded=1;whiteSpace=wrap;html=1;fontSize=15;" parent="1" vertex="1">
                    <mxGeometry x="135" y="360" width="80" height="20" as="geometry"/>
                </mxCell>
                <mxCell id="JgP1TLPubcXvjKaJk5i4-40" value="Add/Edit Run" style="rounded=1;whiteSpace=wrap;html=1;fontSize=15;" parent="1" vertex="1">
                    <mxGeometry x="345" y="360" width="95" height="20" as="geometry"/>
                </mxCell>
                <mxCell id="JgP1TLPubcXvjKaJk5i4-41" value="Add/Edit Plan" style="rounded=1;whiteSpace=wrap;html=1;fontSize=15;" parent="1" vertex="1">
                    <mxGeometry x="577.5" y="360" width="95" height="20" as="geometry"/>
                </mxCell>
            </root>
        </mxGraphModel>
    </diagram>
</mxfile>